<svg width="1192" height="1192" viewBox="0 0 1192 1192" fill="none" xmlns="http://www.w3.org/2000/svg">
<path d="M464.823 667.145L373.04 650.629L460.639 711.978L355.121 692.989L442.72 754.338L337.203 735.361L424.827 796.71L319.284 777.72L384.128 823.132L384.411 823.341C376.707 825.926 368.659 827.809 360.29 828.892C326.853 833.187 293.736 824.215 267.055 803.614C258.403 796.943 250.761 789.289 244.263 780.859C243.894 780.366 243.512 779.886 243.143 779.382C242.762 778.902 242.392 778.397 242.035 777.905C241.482 777.142 240.928 776.379 240.411 775.616C239.919 774.914 239.439 774.225 238.983 773.524C238.823 773.302 238.663 773.068 238.528 772.822C238.183 772.318 237.863 771.825 237.556 771.309C236.94 770.349 236.35 769.376 235.759 768.392C227.009 753.895 221.065 737.404 218.776 719.571C209.89 650.543 258.822 587.176 327.838 578.291C333.302 577.589 338.766 577.245 344.205 577.245C371.932 577.245 398.749 586.339 421.073 603.569C429.725 610.251 437.367 617.894 443.865 626.324C444.628 627.296 445.366 628.268 446.08 629.265C446.572 629.917 447.04 630.594 447.508 631.246C447.705 631.517 447.889 631.788 448.074 632.059C448.418 632.563 448.763 633.055 449.071 633.56C449.514 634.212 449.957 634.877 450.375 635.529C450.769 636.132 451.15 636.747 451.532 637.375C451.889 637.953 452.246 638.532 452.578 639.123C453.009 639.849 453.427 640.587 453.858 641.313C458.498 649.386 462.226 658.013 464.995 667.169L464.835 667.145H464.823Z" fill="#FC321A"/>
<path d="M786.003 815.625L680.485 796.636L768.084 857.972L662.567 838.995L750.166 900.344L644.648 881.367L709.505 926.779C701.813 929.363 693.777 931.234 685.433 932.317C616.405 941.178 553.037 892.271 544.152 823.255C535.267 754.227 584.198 690.86 653.214 681.974C658.69 681.261 664.142 680.928 669.582 680.928C697.321 680.928 724.137 690.023 746.449 707.252C767.604 723.583 782.717 745.698 790.212 770.804L698.429 754.301L786.027 815.65L786.003 815.625Z" fill="#FFAF00"/>
<path d="M755.322 425.036C759.359 416.101 763.506 407.757 767.752 400.004L829.778 462.029C857.111 489.363 894.203 504.734 932.871 504.734H1065.39L973.298 412.643C945.965 385.31 908.873 369.939 870.205 369.939H787C802.912 348.931 820.117 335.123 838.478 328.65C832.005 309.944 820.917 277.934 811.071 249.493L796.402 207.097C756.073 228.646 722.611 265.701 701.936 311.827C695.721 325.401 690.405 339.32 685.863 354.088C685.74 354.469 685.63 354.851 685.519 355.244L685.359 355.097L681.076 370.419L520.745 366.997C477.265 411.597 446.585 465.131 433.946 520.166C398.281 502.543 358.223 495.774 317.857 500.968C206.198 515.33 127.054 617.857 141.416 729.515C143.447 745.305 147.299 760.848 152.935 775.727C182.36 853.468 260.84 907.863 343.725 907.863C352.5 907.863 361.336 907.297 370.197 906.165C409.185 901.144 444.209 885.379 472.675 862.218C497.19 949.878 577.835 1011.28 669.139 1011.28C677.778 1011.28 686.528 1010.72 695.327 1009.59C806.973 995.228 886.13 892.702 871.768 781.055C864.802 726.968 837.199 678.824 794.039 645.497C767.432 624.958 736.887 611.58 704.693 605.956C706.883 592.333 709.369 578.623 712.163 564.913C716.962 540.94 730.77 479.32 755.298 425.011L755.322 425.036ZM464.811 667.145L373.028 650.629L460.627 711.978L355.109 692.989L442.708 754.338L337.191 735.361L424.814 796.71L319.272 777.72L384.116 823.132C376.424 825.716 368.388 827.587 360.044 828.67C308.012 835.389 255.007 807.133 231.353 760.343C224.954 747.68 220.819 733.884 219.01 719.817C212.598 670.012 237.383 619.912 280.74 594.622C291.385 588.419 302.941 583.792 314.928 580.949C334.262 576.359 354.617 576.666 373.865 581.503C392.989 586.315 410.981 595.532 426.057 608.257C433.49 614.534 440.21 621.672 446.006 629.486C453.636 639.787 459.962 651.958 463.912 664.117C464.245 665.127 464.552 666.136 464.848 667.157L464.811 667.145ZM527.206 613.943C512.795 586.179 493.608 561.111 468.675 541.875C467.469 540.94 466.238 540.017 465.02 539.131C470.324 527.095 476.785 514.85 484.465 502.149C512.032 456.651 593.711 404.385 677.396 386.651C673.889 402.724 671.046 419.953 668.757 438.831C662.973 491.885 662.407 545.223 667.206 602.966C659.256 603.039 651.245 603.593 643.233 604.639C604.245 609.648 569.208 625.425 540.743 648.599C543.561 646.285 533.568 627.025 532.276 624.256C530.652 620.786 528.966 617.352 527.193 613.955L527.206 613.943ZM746.425 707.228C767.58 723.559 782.692 745.674 790.187 770.779L698.404 754.276L786.003 815.625L680.485 796.636L768.084 857.972L662.567 838.995L750.166 900.344L644.648 881.367L709.505 926.779C701.813 929.363 693.777 931.234 685.433 932.317C616.405 941.178 553.037 892.271 544.152 823.255C535.267 754.227 584.198 690.86 653.214 681.974C658.69 681.261 664.142 680.928 669.582 680.928C697.321 680.928 724.137 690.023 746.449 707.252L746.425 707.228Z" fill="black"/>
<path d="M860.372 1192H331.64C243.057 1192 159.778 1157.5 97.1366 1094.86C34.4956 1032.23 0 948.955 0 860.372V331.64C0 243.057 34.4956 159.765 97.1366 97.1366C159.778 34.5079 243.057 0 331.64 0H860.372C948.955 0 1032.23 34.4956 1094.88 97.1366C1157.52 159.778 1192.01 243.057 1192.01 331.64V860.372C1192.01 948.955 1157.52 1032.23 1094.88 1094.88C1032.23 1157.52 948.955 1192.01 860.372 1192.01V1192ZM331.64 46.0024C174.139 46.0024 46.0024 174.139 46.0024 331.64V860.372C46.0024 1017.87 174.139 1146.01 331.64 1146.01H860.372C1017.87 1146.01 1146.01 1017.87 1146.01 860.372V331.64C1146.01 174.139 1017.87 46.0024 860.372 46.0024H331.64Z" fill="black"/>
</svg>
