<svg width="1200" height="1200" viewBox="0 0 1200 1200" fill="none" xmlns="http://www.w3.org/2000/svg">
<rect x="10" y="10" width="1180" height="1180" rx="130" fill="white" stroke="black" stroke-width="20"/>
<path d="M320.878 642.6V510.2C320.478 505.4 319.678 500.6 318.478 497C315.678 489.8 309.678 488.2 303.278 485.8C296.478 483 293.278 480.2 293.278 472.6C293.278 459 311.278 460.2 320.478 460.2H355.278C364.478 460.2 382.478 459 382.478 472.6C382.478 480.2 379.278 483 372.478 485.8C366.078 488.2 360.078 489.8 357.278 497C356.078 500.6 355.278 505.4 354.878 510.2V727.4C354.878 749.4 353.678 755.8 329.278 755.8C320.478 755.8 314.878 755.8 308.878 749.4C301.678 742.2 286.078 717.4 279.678 707.8L154.478 535.4V703C154.878 707.8 155.678 712.6 156.878 716.2C159.678 723.4 165.678 725 172.078 727.4C178.878 730.2 182.078 733 182.078 740.6C182.078 754.2 164.078 753 154.878 753H120.078C110.878 753 92.8781 754.2 92.8781 740.6C92.8781 733 96.0781 730.2 102.878 727.4C109.278 725 115.278 723.4 118.078 716.2C119.278 712.6 120.078 707.8 120.478 703V525.8C120.078 508.6 122.878 493.8 103.678 487.8C96.0781 485.4 88.4781 483.4 88.4781 473.8C88.4781 460.6 100.878 460.2 111.278 460.2H166.078C180.878 460.2 183.278 459.8 193.278 470.6C217.278 495.8 246.078 537.8 266.878 567L320.878 642.6ZM441.184 534.6C423.584 534.6 403.184 524.2 403.184 504.6C403.184 483.4 422.784 471 441.984 471C461.584 471 481.184 481.4 481.184 503C481.184 523.8 459.184 534.6 441.184 534.6ZM415.184 702.2V639.8C415.184 631 415.184 618.6 413.984 609.8C412.384 601.4 409.184 599.4 402.384 595.4C397.584 592.6 392.384 590.6 392.384 584.2C392.384 573.4 409.184 571 416.784 569C428.784 565 451.584 557.4 463.984 557.4C482.784 557.4 480.384 584.6 480.384 596.6V702.2C480.384 707.4 479.984 718.2 481.984 723.4C483.584 726.2 486.784 728.2 489.584 730.2C493.584 732.6 496.784 735.4 496.784 740.6C496.784 749.8 489.584 753 481.584 753H413.984C405.984 753 398.784 749.8 398.784 740.6C398.784 735.4 401.984 732.6 405.984 730.2C408.784 728.2 411.984 726.2 413.584 723.4C415.584 718.2 415.184 707.4 415.184 702.2ZM673.106 759C633.106 759 591.106 743.4 561.906 715.8C531.506 686.6 516.706 648.2 516.706 605.8C516.706 517 587.106 454.2 674.306 454.2C762.306 454.2 834.306 515 834.306 605.8C834.306 695.4 760.306 759 673.106 759ZM674.706 728.6C738.706 728.6 756.306 659 756.306 607.4C756.306 556.6 738.706 484.6 675.106 484.6C645.106 484.6 623.506 503.4 610.306 529C598.306 552.6 594.706 578.2 594.706 604.6C594.706 654.2 611.906 728.6 674.706 728.6ZM990.047 563.4L1021.65 571.4C1040.85 575.8 1064.85 583.4 1080.45 595.8C1098.45 610.6 1109.25 632.2 1109.25 655.4C1109.25 685.8 1094.45 713.8 1070.05 731.8C1044.05 751.4 1013.25 759 980.847 759C954.847 759 928.047 754.6 904.447 743.8C884.447 734.2 856.847 712.6 856.847 688.6C856.847 677.4 864.847 666.6 876.447 666.6C887.247 666.6 893.247 673 898.847 681.4C907.247 694.2 912.847 704.2 926.047 713C940.847 722.6 959.647 727.4 977.247 727.4C1004.85 727.4 1038.85 713 1038.85 681C1038.85 667 1031.65 655.8 1018.85 649.8C1006.05 643.4 982.047 638.2 967.647 635.4C947.247 631.8 920.047 624.6 902.847 613C881.247 598.2 867.647 575.4 867.647 549C867.647 520.6 883.247 493.4 906.047 476.6C928.847 459.8 958.447 454.2 986.447 454.2C1016.05 454.2 1048.45 461.4 1074.85 475C1079.65 477.8 1084.05 481 1085.65 486.6C1088.45 496.2 1088.45 512.6 1088.45 522.6C1088.45 532.2 1083.65 539 1073.65 539C1052.05 539 1055.25 482.2 989.647 482.2C966.847 482.2 939.647 495 939.647 521C939.647 549.8 967.247 557.8 990.047 563.4Z" fill="black"/>
<path d="M1085.37 1032.29C1078.5 1039.82 1071.73 1047.33 1064.88 1054.97C1062.4 1057.7 1060.18 1060.73 1057.7 1063.48L1031.31 1092.63C1027.43 1097 1023.75 1101.55 1020.15 1106.06C1017.86 1108.98 1015.59 1111.95 1013.24 1114.82L1011.44 1116.97L1009.42 1118.91C1008.06 1120.19 1006.69 1121.45 1005.11 1122.65C1003.53 1123.85 1002.38 1122.81 1002.22 1120.14C1002.18 1118.5 1002.33 1116.86 1002.68 1115.25C1002.88 1114.33 1003.14 1113.41 1003.47 1112.53L1004.05 1111.05C1004.32 1110.6 1004.62 1110.18 1004.95 1109.77C1014.25 1097.92 1023.86 1086.22 1034.45 1075.16C1040.75 1068.53 1046.46 1060.89 1052.6 1053.82C1059.31 1046.04 1066.24 1038.35 1072.98 1030.65L1085.62 1016.49C1092.01 1009.31 1098.56 1002.24 1104.72 995.035L1111.88 986.601C1114.22 983.872 1116.62 981.143 1119.11 978.414C1120.2 977.213 1121.18 975.985 1122.33 974.811C1126.72 970.554 1128.58 969.653 1131.06 970.39C1131.63 970.497 1132.19 970.671 1132.73 970.909C1134.28 971.727 1133.57 974.511 1130.98 978.059L1125.22 985.755L1119.22 993.943L1116.13 997.873C1115.07 999.21 1113.92 1000.6 1112.8 1001.78L1106.03 1009.47C1099.24 1017.11 1092.39 1024.81 1085.59 1032.45L1085.37 1032.29Z" fill="black"/>
<path d="M1090.15 1023.58C1083.16 1031.77 1076.18 1039.96 1069.3 1048.31C1066.82 1051.34 1064.55 1054.56 1062.04 1057.56C1053.14 1068.2 1044.16 1078.77 1035.4 1089.52C1031.53 1094.27 1027.84 1099.23 1024.27 1104.17C1021.95 1107.31 1019.87 1110.61 1017.36 1113.7C1014.89 1116.77 1012.25 1119.71 1009.45 1122.49C1007.68 1124.21 1006.42 1122.84 1006.12 1120C1005.79 1116.14 1006.68 1112.26 1008.66 1108.92C1009.67 1107.2 1010.79 1105.54 1012.01 1103.96L1015.59 1099.12C1017.96 1095.9 1020.39 1092.74 1022.88 1089.57C1027.82 1083.27 1032.92 1077.05 1038.3 1070.99C1044.71 1063.65 1050.36 1055.46 1056.42 1047.65C1063.1 1039.08 1069.9 1030.62 1076.7 1022.14L1089.28 1006.52C1095.64 998.637 1102.19 990.859 1108.38 982.89C1113.13 976.667 1117.31 970.199 1121.84 963.786C1122.85 962.394 1123.72 961.056 1124.84 959.665C1128.96 954.752 1130.92 953.715 1133.93 954.479C1134.61 954.612 1135.29 954.795 1135.95 955.025C1137.94 955.953 1137.64 959.119 1135.32 963.212C1127.92 975.428 1119.72 987.135 1110.76 998.255C1104.1 1006.77 1097.41 1015.34 1090.48 1023.69L1090.15 1023.58Z" fill="black"/>
<path d="M1091.54 1018.51C1083.93 1028.06 1076.29 1037.61 1068.78 1047.22C1066.05 1050.74 1063.71 1054.5 1060.92 1058.13L1046.21 1076.55C1041.22 1082.61 1036.2 1088.67 1031.31 1094.81C1026.97 1100.27 1023.12 1106.03 1019.08 1111.71C1016.57 1115.39 1014.23 1119.16 1011.66 1122.79C1008.9 1126.3 1005.9 1129.62 1002.68 1132.72C1000.63 1134.63 999.051 1133.16 998.26 1129.8C997.257 1125.24 997.656 1120.48 999.406 1116.15C1008.83 1100.53 1019.44 1085.66 1031.15 1071.67C1038.35 1063.48 1044.49 1053.74 1051.18 1044.79C1058.6 1034.96 1066.16 1025.22 1073.67 1015.48L1087.56 997.464C1094.41 988.266 1101.94 979.478 1108.63 970.172C1113.95 963.103 1118.32 955.489 1123.61 948.339C1124.76 946.783 1125.85 945.173 1127.1 943.672C1132.04 938.568 1134.75 937.395 1137.58 938.104C1138.24 938.174 1138.89 938.311 1139.52 938.514C1141.32 939.305 1140.7 942.607 1138.57 947.356C1132.1 961.821 1122.85 975.385 1113.7 989.14C1107.02 999.429 1099.27 1009.01 1091.87 1018.86L1091.54 1018.51Z" fill="black"/>
<path d="M1089.28 1122.92C1085.37 1126.01 1081.28 1129.15 1077.35 1132.26C1075.9 1133.4 1074.62 1134.74 1073.23 1135.89C1068.13 1139.9 1063 1143.91 1058.06 1148.09C1055.85 1149.91 1053.91 1152.07 1051.86 1154.04C1049.47 1156.67 1046.9 1159.15 1044.16 1161.43C1043.29 1162.06 1042.04 1161.13 1041.44 1159.38C1041.07 1158.37 1040.92 1157.29 1041 1156.22C1041.04 1155.11 1041.41 1154.04 1042.06 1153.14C1046.72 1147 1052.4 1141.71 1058.85 1137.5C1062.64 1134.77 1065.89 1131.41 1069.44 1128.41C1072.98 1125.41 1077.35 1121.91 1081.34 1118.72L1088.57 1112.77L1094.03 1108.29C1095.91 1106.85 1097.82 1105.4 1099.65 1103.9C1102.38 1101.55 1105.11 1098.96 1107.84 1096.59C1108.46 1096.07 1108.98 1095.5 1109.69 1095C1110.56 1094.28 1111.59 1093.76 1112.69 1093.5C1113.08 1093.41 1113.49 1093.42 1113.88 1093.52C1114.26 1093.63 1114.62 1093.83 1114.9 1094.1C1115.2 1094.31 1115.47 1094.56 1115.7 1094.84C1115.85 1095.1 1115.94 1095.39 1115.97 1095.7C1116 1096 1115.96 1096.3 1115.86 1096.59C1115.66 1097.39 1115.27 1098.14 1114.74 1098.77C1110.59 1103.6 1105.87 1108.57 1100.96 1113.29C1099.18 1115.05 1097.31 1116.7 1095.34 1118.23L1089.44 1123.03L1089.28 1122.92Z" fill="black"/>
<path d="M1099.35 1109.22L1085.37 1122.13C1083.68 1123.71 1082.24 1125.54 1080.54 1127.1C1074.51 1132.56 1068.4 1138.02 1062.45 1143.64C1059.84 1146.13 1057.36 1148.77 1055.03 1151.53C1051.81 1154.85 1049.24 1158.78 1044.55 1160.78C1043.13 1161.46 1042.06 1160.04 1041.46 1157.69C1041.11 1156.39 1040.9 1155.06 1040.83 1153.71C1040.75 1152.97 1040.75 1152.23 1040.83 1151.5C1041.03 1150.87 1041.33 1150.27 1041.74 1149.75C1043.18 1147.92 1044.66 1146.09 1046.16 1144.29C1047.66 1142.49 1049.43 1140.94 1051.12 1139.27C1054.54 1135.98 1058.13 1132.88 1061.88 1129.96C1066.31 1126.1 1070.51 1121.97 1074.46 1117.6L1088.1 1104.26L1096.56 1096.07C1100.77 1091.84 1105.22 1087.88 1109.23 1083.49C1112.37 1080.1 1114.96 1076.34 1117.85 1072.79C1118.51 1072 1119.05 1071.15 1119.76 1070.41C1122.49 1067.69 1123.83 1067.33 1126.39 1068.91C1126.99 1069.3 1127.62 1069.62 1128.17 1070.03C1129.03 1070.8 1129.57 1071.86 1129.67 1073C1129.78 1074.15 1129.45 1075.29 1128.74 1076.2C1124.23 1083.29 1118.99 1089.9 1113.1 1095.9C1108.79 1100.6 1104.12 1104.97 1099.46 1109.55L1099.35 1109.22Z" fill="black"/>
<path d="M1101.42 1098.82C1096.4 1104.09 1091.27 1109.3 1086.14 1114.52C1084.28 1116.43 1082.7 1118.56 1080.68 1120.44C1074.08 1127.13 1067.44 1133.79 1061.09 1140.69C1058.36 1143.8 1055.63 1146.97 1052.9 1150.11C1049.9 1154.17 1046.46 1158.51 1043.07 1161.9C1042.04 1162.93 1040.75 1162.39 1040.15 1160.37C1039.48 1157.59 1039.88 1154.67 1041.27 1152.18C1044 1147.4 1047.08 1142.79 1050.31 1138.34C1053.53 1133.89 1057.51 1130.16 1061.44 1126.28C1066.27 1121.8 1070.09 1116.18 1074.46 1111.11C1079.29 1105.65 1084.17 1100.19 1089.25 1094.73L1098.47 1084.77C1103.11 1079.69 1107.89 1074.7 1112.12 1069.46C1115.53 1065.39 1118.53 1061.27 1121.81 1057.01C1122.46 1056.02 1123.22 1055.11 1124.07 1054.28C1127.35 1051.39 1128.96 1050.98 1131.17 1051.77C1131.68 1051.92 1132.17 1052.11 1132.64 1052.35C1134.09 1053.11 1133.98 1055.4 1132.64 1058.43L1131.17 1061.84C1130.63 1062.92 1130.03 1063.97 1129.37 1064.98C1128.11 1067.03 1126.64 1069.08 1125.41 1071.1C1122.73 1075.21 1119.74 1079.1 1116.46 1082.75C1111.66 1088.21 1106.58 1093.67 1101.67 1099.12L1101.42 1098.82Z" fill="black"/>
<path d="M114.625 182.712C121.503 175.18 128.271 167.675 135.121 160.033C137.605 157.304 139.815 154.274 142.299 151.518L168.69 122.37C172.565 118.004 176.25 113.446 179.852 108.943C182.145 106.023 184.41 103.048 186.757 100.182L188.558 98.0263L190.578 96.0886C191.942 94.8059 193.307 93.5504 194.89 92.3496C196.473 91.1488 197.619 92.1859 197.783 94.8604C197.823 96.5015 197.667 98.1415 197.319 99.7456C197.121 100.673 196.857 101.585 196.527 102.475L195.954 103.949C195.682 104.395 195.381 104.823 195.054 105.231C185.747 117.076 176.14 128.784 165.551 139.837C159.247 146.469 153.543 154.111 147.402 161.179C140.689 168.957 133.756 176.654 127.015 184.35L114.379 198.514C107.993 205.692 101.443 212.76 95.2752 219.965L88.1248 228.399C85.7777 231.128 83.3761 233.857 80.8925 236.586C79.8008 237.787 78.8184 239.015 77.6721 240.189C73.2781 244.446 71.4223 245.347 68.9388 244.61C68.3654 244.503 67.8066 244.329 67.274 244.091C65.7184 243.273 66.4279 240.489 69.0206 236.941L74.7792 229.245L80.7833 221.057L83.8673 217.127C84.9317 215.79 86.0779 214.398 87.1969 213.224L93.9652 205.528C100.761 197.886 107.611 190.19 114.407 182.549L114.625 182.712Z" fill="black"/>
<path d="M109.849 191.418C116.836 183.231 123.822 175.043 130.7 166.692C133.183 163.663 135.449 160.442 137.959 157.44C146.856 146.796 155.835 136.235 164.596 125.482C168.471 120.733 172.156 115.766 175.731 110.826C178.051 107.687 180.125 104.385 182.636 101.301C185.106 98.2249 187.749 95.2909 190.55 92.5133C192.324 90.7939 193.58 92.1585 193.88 94.9968C194.21 98.8646 193.323 102.739 191.342 106.077C190.328 107.801 189.206 109.46 187.985 111.044L184.41 115.875C182.035 119.095 179.606 122.261 177.123 125.427C172.183 131.731 167.08 137.954 161.703 144.013C155.29 151.354 149.64 159.542 143.581 167.347C136.895 175.917 130.099 184.377 123.304 192.865L110.722 208.476C104.363 216.363 97.8134 224.141 91.6182 232.11C86.8694 238.333 82.6938 244.801 78.1634 251.214C77.1536 252.606 76.2802 253.944 75.1613 255.335C71.0403 260.248 69.0752 261.285 66.0732 260.521C65.3877 260.388 64.7128 260.205 64.0536 259.975C62.0613 259.047 62.3615 255.881 64.6813 251.787C72.0775 239.572 80.2834 227.865 89.2438 216.745C95.903 208.23 102.589 199.66 109.521 191.309L109.849 191.418Z" fill="black"/>
<path d="M108.457 196.495C116.071 186.942 123.713 177.39 131.218 167.784C133.948 164.263 136.295 160.497 139.078 156.867L153.789 138.445C158.783 132.386 163.805 126.328 168.69 120.187C173.029 114.729 176.877 108.97 180.916 103.294C183.427 99.6091 185.774 95.8429 188.34 92.2131C191.099 88.6976 194.099 85.3782 197.319 82.2789C199.366 80.3685 200.949 81.8423 201.74 85.1991C202.743 89.7592 202.344 94.5161 200.594 98.845C191.17 114.465 180.559 129.338 168.854 143.33C161.649 151.518 155.508 161.261 148.821 170.213C141.398 180.038 133.838 189.781 126.333 199.524L112.442 217.536C105.591 226.734 98.059 235.522 91.3725 244.828C86.0507 251.897 81.684 259.511 76.3894 266.661C75.2432 268.217 74.1515 269.827 72.8961 271.328C67.9563 276.432 65.2544 277.605 62.4161 276.896C61.7579 276.826 61.1086 276.689 60.4784 276.486C58.6771 275.695 59.3048 272.393 61.4336 267.644C67.9017 253.179 77.1536 239.615 86.2963 225.86C92.9827 215.571 100.734 205.992 108.13 196.14L108.457 196.495Z" fill="black"/>
<path d="M110.722 92.0767C114.625 88.9927 118.719 85.8542 122.649 82.7429C124.095 81.5967 125.378 80.2594 126.77 79.1131C131.873 75.1012 137.004 71.0894 141.944 66.9137C144.155 65.0852 146.092 62.9292 148.139 60.9642C150.533 58.326 153.104 55.8548 155.835 53.5681C156.709 52.9404 157.964 53.8683 158.565 55.615C158.932 56.6275 159.081 57.7065 159.001 58.7808C158.956 59.8908 158.586 60.9631 157.937 61.8648C153.28 68.0015 147.603 73.2913 141.153 77.5029C137.359 80.2321 134.111 83.5889 130.563 86.591C127.015 89.5931 122.649 93.0864 118.664 96.2796L111.432 102.229L105.974 106.705C104.09 108.151 102.18 109.598 100.351 111.099C97.6223 113.446 94.8931 116.039 92.164 118.413C91.5363 118.932 91.0177 119.505 90.3081 119.996C89.439 120.725 88.4106 121.239 87.3061 121.497C86.9167 121.589 86.5106 121.582 86.1246 121.477C85.7385 121.373 85.3848 121.173 85.0954 120.897C84.8006 120.687 84.5345 120.439 84.304 120.16C84.1525 119.898 84.0594 119.606 84.0311 119.304C84.0029 119.003 84.0401 118.699 84.1402 118.413C84.3427 117.61 84.7253 116.863 85.2592 116.23C89.4075 111.399 94.129 106.432 99.0415 101.711C100.815 99.953 102.692 98.3034 104.664 96.7708L110.559 91.9675L110.722 92.0767Z" fill="black"/>
<path d="M100.652 105.777L114.625 92.8681C116.317 91.2852 117.764 89.4567 119.456 87.901C125.487 82.4427 131.6 76.9844 137.55 71.3623C140.164 68.8677 142.642 66.2348 144.973 63.475C148.194 60.1454 150.759 56.2154 155.453 54.2231C156.873 53.5408 157.937 54.96 158.537 57.3071C158.894 58.6078 159.104 59.9443 159.165 61.2917C159.248 62.0262 159.248 62.7678 159.165 63.5023C158.973 64.1342 158.668 64.726 158.264 65.2489C156.818 67.0775 155.344 68.906 153.843 70.7073C152.342 72.5085 150.568 74.0642 148.876 75.729C145.456 79.0161 141.867 82.1225 138.123 85.0354C133.689 88.9049 129.488 93.0331 125.542 97.3985L111.896 110.744L103.435 118.932C99.2325 123.162 94.784 127.119 90.7721 131.513C87.6336 134.897 85.0408 138.664 82.1479 142.211C81.4929 143.003 80.9471 143.849 80.2375 144.586C77.5084 147.315 76.1711 147.67 73.6056 146.087C73.0052 145.705 72.3775 145.377 71.8317 144.968C70.9709 144.205 70.4327 143.143 70.3263 141.997C70.2198 140.852 70.5531 139.709 71.2586 138.8C75.7721 131.706 81.0131 125.102 86.8967 119.095C91.2088 114.401 95.8756 110.035 100.543 105.45L100.652 105.777Z" fill="black"/>
<path d="M98.5775 116.175C103.599 110.908 108.73 105.695 113.861 100.483C115.717 98.5721 117.3 96.4434 119.319 94.5602C125.924 87.8738 132.556 81.2146 138.915 74.3098C141.644 71.1985 144.373 68.0327 147.102 64.8942C150.104 60.8277 153.543 56.4883 156.927 53.1042C157.964 52.0671 159.247 52.6129 159.847 54.6325C160.516 57.4053 160.117 60.3283 158.728 62.82C155.999 67.596 152.915 72.2083 149.695 76.6569C146.474 81.1054 142.49 84.8444 138.56 88.7198C133.729 93.1956 129.908 98.8177 125.542 103.894C120.711 109.352 115.826 114.811 110.75 120.269L101.525 130.23C96.8854 135.307 92.1094 140.301 87.8792 145.541C84.4677 149.608 81.4657 153.729 78.1907 157.986C77.5395 158.977 76.7797 159.893 75.9254 160.715C72.6504 163.608 71.0402 164.018 68.8296 163.226C68.3229 163.078 67.8298 162.886 67.3559 162.653C65.9094 161.889 66.0186 159.596 67.3559 156.567L68.8296 153.155C69.3708 152.076 69.9722 151.029 70.6309 150.017C71.8863 147.97 73.36 145.923 74.5881 143.904C77.2653 139.793 80.2583 135.897 83.5398 132.25C88.3431 126.792 93.4194 121.333 98.3319 115.875L98.5775 116.175Z" fill="black"/>
</svg>
